<svg xmlns="http://www.w3.org/2000/svg" width="12" height="12" viewBox="0 0 12 12" fill="none">
<path d="M7.08868 7.09051H0.818042V1.0923H7.08868V3.38532L7.6343 3.50175V1.01672C7.79694 0.922257 7.90672 0.748384 7.90672 0.547193C7.90672 0.246171 7.66264 0.00183105 7.36136 0.00183105H0.545362C0.244085 0.00183105 0 0.246171 0 0.547193C0 0.74864 0.110298 0.922257 0.272681 1.01672V7.36319C0.272681 7.51358 0.394723 7.63587 0.545106 7.63587H2.22536L1.24494 11.312C1.16757 11.6028 1.34043 11.902 1.63149 11.9796C1.67872 11.9921 1.72596 11.9983 1.77243 11.9983C2.01319 11.9983 2.23404 11.8372 2.29915 11.5933L3.35464 7.63587H4.55208L5.60757 11.5933C5.67268 11.8372 5.89302 11.9983 6.13404 11.9983C6.18077 11.9983 6.22774 11.9924 6.27523 11.9796C6.5663 11.902 6.73889 11.6028 6.66179 11.3122L5.68136 7.63613H7.36162C7.51225 7.63613 7.63404 7.51383 7.63404 7.36345V5.73272L7.08842 5.61604L7.08868 7.09051Z" fill="black"/>
<path d="M9.40834 3.95745C9.94247 3.95745 10.3768 3.52392 10.3768 2.98953C10.3768 2.45464 9.94247 2.02136 9.40834 2.02136C8.87447 2.02136 8.44043 2.45438 8.44043 2.98953C8.44043 3.52392 8.87447 3.95745 9.40834 3.95745Z" fill="black"/>
<path d="M11.9628 7.16814L10.9614 4.57614C10.881 4.36602 10.6785 4.22738 10.4533 4.22738H9.92126C9.77164 4.22738 9.64092 4.29274 9.54339 4.39104L9.79718 6.25461L9.40781 6.58474L9.01896 6.25461L9.27275 4.39104C9.17445 4.29274 9.04398 4.22738 8.89437 4.22738H8.42024L5.29411 3.55946C4.99973 3.49666 4.70994 3.68457 4.64688 3.97895C4.58407 4.27359 4.77173 4.56338 5.06637 4.62619L8.24841 5.30585C8.28135 5.313 8.3153 5.31683 8.34901 5.31759V7.83989L8.14041 11.4207C8.12356 11.7213 8.35258 11.9791 8.6536 11.9967C8.66407 11.9975 8.67505 11.9978 8.68552 11.9978C8.97224 11.9978 9.21224 11.7741 9.2296 11.4841L9.40858 8.41283L9.5873 11.4841C9.60415 11.7741 9.84492 11.9978 10.1316 11.9978C10.1421 11.9978 10.1531 11.9975 10.1636 11.9967C10.4643 11.9791 10.6936 11.7213 10.6762 11.4207L10.4679 7.83989V6.32125L10.9469 7.56108C11.0554 7.84244 11.3717 7.98134 11.6523 7.87334C11.9319 7.76483 12.0716 7.44925 11.9628 7.16814Z" fill="black"/>
<path d="M1.22754 3.88731V6.20484C1.22754 6.35548 1.34958 6.47752 1.49996 6.47752C1.65086 6.47752 1.77265 6.35522 1.77265 6.20484V3.88731C1.77265 3.73692 1.6506 3.61462 1.49996 3.61462C1.34933 3.61462 1.22754 3.73667 1.22754 3.88731Z" fill="black"/>
<path d="M2.4541 1.97849V6.20453C2.4541 6.35543 2.57614 6.47721 2.72678 6.47721C2.87742 6.47721 2.99921 6.35517 2.99921 6.20453V1.97849C2.99921 1.82785 2.87717 1.70581 2.72678 1.70581C2.57614 1.70581 2.4541 1.82785 2.4541 1.97849Z" fill="black"/>
<path d="M3.68066 3.0687V6.20453C3.68066 6.35542 3.80271 6.47721 3.95309 6.47721C4.10398 6.47721 4.22577 6.35517 4.22577 6.20453V3.0687C4.22577 2.91806 4.10373 2.79602 3.95309 2.79602C3.80271 2.79602 3.68066 2.91806 3.68066 3.0687Z" fill="black"/>
</svg>