<svg xmlns="http://www.w3.org/2000/svg" width="0.5rem" height="0.5rem" viewBox="0 0 24 24">
<path fill-rule="evenodd" clip-rule="evenodd" d="M11 22C17.0752 22 22 17.0751 22 11.0002C22 4.92488 17.0752 0 11 0C4.92477 0 0 4.92488 0 11.0002C0 17.0751 4.92477 22 11 22ZM10.2939 16.4917C10.5622 16.2471 10.834 15.9992 11.1112 15.7473C11.385 16.0038 11.6517 16.2558 11.9143 16.5038C12.4961 17.0534 13.0574 17.5836 13.6305 18.1009C14.8126 19.1686 15.6754 19.0981 16.6416 17.8196C17.7633 16.3356 18.66 14.7254 19.2798 12.9647C19.4546 12.4688 19.5035 11.9734 19.4436 11.4684C19.3004 10.2607 18.3452 9.63538 17.2253 10.1212C16.4559 10.4552 16.0243 11.1921 15.622 11.8792C15.6143 11.8923 15.6067 11.9054 15.599 11.9185C15.3767 12.298 15.1353 12.6347 14.8441 13.041C14.6666 13.2887 14.4705 13.5621 14.249 13.8869C14.0563 13.6689 13.868 13.45 13.6808 13.2323C13.2692 12.7538 12.8628 12.2813 12.4264 11.838C11.2768 10.6706 10.5352 10.7035 9.40706 11.9071C9.01476 12.3261 8.62356 12.7462 8.20868 13.1917C8.02704 13.3868 7.84086 13.5867 7.64807 13.7936C7.45596 13.495 7.27214 13.2054 7.09277 12.9228C6.69894 12.3024 6.32661 11.7158 5.93528 11.1422C5.24998 10.1377 4.22981 9.74425 3.43518 10.1331C2.64558 10.5196 2.30247 11.6111 2.6991 12.7254C3.37205 14.6161 4.30209 16.3772 5.59629 17.9266C6.5268 19.0409 7.41339 19.0908 8.48708 18.1297C9.08646 17.5927 9.68118 17.0504 10.2939 16.4917Z" fill="white"/>
</svg>