<svg xmlns="http://www.w3.org/2000/svg" width="10" height="10" viewBox="0 0 10 10" fill="none">
<path d="M6 2.5C6 2.03406 6 1.80109 5.9239 1.61732C5.8224 1.37229 5.6277 1.17761 5.3827 1.07612C5.1989 1 4.96595 1 4.5 1H3C2.05719 1 1.58579 1 1.2929 1.2929C1 1.58579 1 2.05719 1 3V4.5C1 4.96595 1 5.1989 1.07612 5.3827C1.17761 5.6277 1.37229 5.8224 1.61732 5.9239C1.80109 6 2.03406 6 2.5 6" stroke="black"/>
<path d="M8 4H5C4.44772 4 4 4.44772 4 5V8C4 8.55228 4.44772 9 5 9H8C8.55228 9 9 8.55228 9 8V5C9 4.44772 8.55228 4 8 4Z" stroke="black"/>
</svg>