<svg xmlns="http://www.w3.org/2000/svg" xml:space="preserve" id="Layer_1" x="0" y="0"
    style="enable-background:new 0 0 1813.13 302.19" version="1.1" viewBox="0 0 1813.13 302.19">
<path d="M173.159 72H122.487C122.127 67.8073 121.169 64.0039 119.612 60.5898C118.114 57.1758 116.018 54.2409 113.323 51.7851C110.687 49.2695 107.483 47.3529 103.709 46.0352C99.9359 44.6575 95.6533 43.9687 90.8616 43.9687C82.4762 43.9687 75.3786 46.0052 69.5687 50.0781C63.8187 54.151 59.4463 59.9909 56.4515 67.5977C53.5166 75.2044 52.0491 84.3385 52.0491 95C52.0491 106.26 53.5465 115.694 56.5413 123.301C59.596 130.848 63.9984 136.538 69.7484 140.371C75.4984 144.145 82.4163 146.031 90.5023 146.031C95.1142 146.031 99.2471 145.462 102.901 144.324C106.554 143.126 109.729 141.419 112.424 139.203C115.119 136.987 117.306 134.322 118.983 131.207C120.72 128.033 121.888 124.469 122.487 120.516L173.159 120.875C172.56 128.661 170.373 136.598 166.6 144.684C162.826 152.71 157.466 160.137 150.518 166.965C143.63 173.733 135.095 179.184 124.912 183.316C114.73 187.449 102.901 189.516 89.4241 189.516C72.5335 189.516 57.3799 185.892 43.9632 178.645C30.6064 171.397 20.0348 160.736 12.2484 146.66C4.52179 132.585 0.658509 115.365 0.658509 95C0.658509 74.5156 4.61163 57.2656 12.5179 43.25C20.4241 29.1745 31.0856 18.543 44.5023 11.3555C57.9189 4.10807 72.8929 0.484368 89.4241 0.484368C101.044 0.484368 111.735 2.07161 121.498 5.24608C131.261 8.42057 139.826 13.0625 147.194 19.1719C154.561 25.2213 160.491 32.6784 164.983 41.543C169.475 50.4075 172.2 60.5599 173.159 72ZM366.482 95C366.482 115.484 362.499 132.764 354.532 146.84C346.566 160.855 335.815 171.487 322.278 178.734C308.742 185.922 293.648 189.516 276.997 189.516C260.226 189.516 245.073 185.892 231.536 178.645C218.06 171.337 207.338 160.676 199.372 146.66C191.466 132.585 187.513 115.365 187.513 95C187.513 74.5156 191.466 57.2656 199.372 43.25C207.338 29.1745 218.06 18.543 231.536 11.3555C245.073 4.10807 260.226 0.484368 276.997 0.484368C293.648 0.484368 308.742 4.10807 322.278 11.3555C335.815 18.543 346.566 29.1745 354.532 43.25C362.499 57.2656 366.482 74.5156 366.482 95ZM315.091 95C315.091 83.9792 313.624 74.6953 310.689 67.1484C307.814 59.5417 303.531 53.7917 297.841 49.8984C292.211 45.9453 285.263 43.9687 276.997 43.9687C268.732 43.9687 261.754 45.9453 256.064 49.8984C250.433 53.7917 246.151 59.5417 243.216 67.1484C240.341 74.6953 238.903 83.9792 238.903 95C238.903 106.021 240.341 115.335 243.216 122.941C246.151 130.488 250.433 136.238 256.064 140.191C261.754 144.085 268.732 146.031 276.997 146.031C285.263 146.031 292.211 144.085 297.841 140.191C303.531 136.238 307.814 130.488 310.689 122.941C313.624 115.335 315.091 106.021 315.091 95ZM382.004 2.99999H444.176L486.941 107.219H489.098L531.863 2.99999H594.035V187H545.16V80.625H543.723L502.754 185.562H473.285L432.316 79.9062H430.879V187H382.004V2.99999ZM660.072 2.99999V187H610.119V2.99999H660.072ZM835.359 2.99999V187H793.672L727.187 90.3281H726.109V187H676.156V2.99999H718.562L783.968 99.3125H785.406V2.99999H835.359ZM970.89 63.7344C970.111 60.5599 968.884 57.7747 967.207 55.3789C965.529 52.9232 963.433 50.8568 960.917 49.1797C958.462 47.4427 955.587 46.1549 952.292 45.3164C949.058 44.418 945.494 43.9687 941.601 43.9687C933.216 43.9687 926.058 45.9753 920.128 49.9883C914.259 54.0013 909.766 59.7812 906.652 67.3281C903.597 74.875 902.07 83.9792 902.07 94.6406C902.07 105.422 903.537 114.646 906.472 122.313C909.407 129.979 913.779 135.849 919.589 139.922C925.399 143.995 932.617 146.031 941.242 146.031C948.848 146.031 955.167 144.923 960.199 142.707C965.29 140.491 969.093 137.346 971.609 133.273C974.125 129.201 975.382 124.409 975.382 118.898L984.007 119.797H941.96V84.2188H1023.54V109.734C1023.54 126.505 1019.97 140.85 1012.85 152.77C1005.78 164.629 996.016 173.733 983.558 180.082C971.16 186.371 956.934 189.516 940.882 189.516C922.973 189.516 907.251 185.712 893.714 178.105C880.178 170.499 869.606 159.658 862 145.582C854.453 131.507 850.679 114.766 850.679 95.3594C850.679 80.1458 852.985 66.6693 857.597 54.9297C862.269 43.1901 868.738 33.2773 877.003 25.1914C885.269 17.0456 894.822 10.9062 905.664 6.77343C916.505 2.58072 928.125 0.484368 940.523 0.484368C951.424 0.484368 961.546 2.04166 970.89 5.15625C980.294 8.21093 988.589 12.5833 995.777 18.2734C1003.02 23.9036 1008.86 30.582 1013.3 38.3086C1017.73 46.0352 1020.42 54.5104 1021.38 63.7344H970.89ZM1181.24 60.5C1180.76 54.5104 1178.52 49.8385 1174.5 46.4844C1170.55 43.1302 1164.53 41.4531 1156.44 41.4531C1151.29 41.4531 1147.07 42.082 1143.78 43.3398C1140.54 44.5378 1138.15 46.1849 1136.59 48.2812C1135.03 50.3776 1134.22 52.7734 1134.16 55.4687C1134.04 57.6849 1134.43 59.6914 1135.33 61.4883C1136.29 63.2253 1137.79 64.8125 1139.82 66.25C1141.86 67.6276 1144.46 68.8854 1147.64 70.0234C1150.81 71.1615 1154.59 72.1797 1158.96 73.0781L1174.05 76.3125C1184.24 78.4687 1192.95 81.3138 1200.2 84.8477C1207.44 88.3815 1213.37 92.5443 1217.99 97.3359C1222.6 102.068 1225.98 107.398 1228.14 113.328C1230.36 119.258 1231.49 125.727 1231.55 132.734C1231.49 144.833 1228.47 155.076 1222.48 163.461C1216.49 171.846 1207.92 178.225 1196.78 182.598C1185.7 186.97 1172.38 189.156 1156.8 189.156C1140.81 189.156 1126.86 186.79 1114.94 182.059C1103.08 177.327 1093.85 170.049 1087.26 160.227C1080.74 150.344 1077.44 137.706 1077.38 122.313H1124.82C1125.12 127.943 1126.53 132.674 1129.04 136.508C1131.56 140.341 1135.09 143.246 1139.64 145.223C1144.25 147.199 1149.74 148.187 1156.08 148.187C1161.41 148.187 1165.88 147.529 1169.47 146.211C1173.06 144.893 1175.79 143.066 1177.65 140.73C1179.5 138.395 1180.46 135.729 1180.52 132.734C1180.46 129.919 1179.53 127.464 1177.74 125.367C1176 123.211 1173.12 121.294 1169.11 119.617C1165.1 117.88 1159.68 116.263 1152.85 114.766L1134.52 110.812C1118.23 107.279 1105.38 101.379 1095.98 93.1133C1086.64 84.7878 1081.99 73.4375 1082.05 59.0625C1081.99 47.3828 1085.11 37.1706 1091.4 28.4258C1097.75 19.6211 1106.52 12.763 1117.72 7.85155C1128.98 2.9401 1141.89 0.484368 1156.44 0.484368C1171.3 0.484368 1184.15 2.97005 1194.99 7.9414C1205.83 12.9128 1214.18 19.9206 1220.05 28.9648C1225.98 37.9492 1228.98 48.4609 1229.04 60.5H1181.24ZM1421.21 95C1421.21 115.484 1417.23 132.764 1409.27 146.84C1401.3 160.855 1390.55 171.487 1377.01 178.734C1363.48 185.922 1348.38 189.516 1331.73 189.516C1314.96 189.516 1299.81 185.892 1286.27 178.645C1272.79 171.337 1262.07 160.676 1254.11 146.66C1246.2 132.585 1242.25 115.365 1242.25 95C1242.25 74.5156 1246.2 57.2656 1254.11 43.25C1262.07 29.1745 1272.79 18.543 1286.27 11.3555C1299.81 4.10807 1314.96 0.484368 1331.73 0.484368C1348.38 0.484368 1363.48 4.10807 1377.01 11.3555C1390.55 18.543 1401.3 29.1745 1409.27 43.25C1417.23 57.2656 1421.21 74.5156 1421.21 95ZM1369.82 95C1369.82 83.9792 1368.36 74.6953 1365.42 67.1484C1362.55 59.5417 1358.26 53.7917 1352.57 49.8984C1346.94 45.9453 1340 43.9687 1331.73 43.9687C1323.46 43.9687 1316.49 45.9453 1310.8 49.8984C1305.17 53.7917 1300.88 59.5417 1297.95 67.1484C1295.07 74.6953 1293.64 83.9792 1293.64 95C1293.64 106.021 1295.07 115.335 1297.95 122.941C1300.88 130.488 1305.17 136.238 1310.8 140.191C1316.49 144.085 1323.46 146.031 1331.73 146.031C1340 146.031 1346.94 144.085 1352.57 140.191C1358.26 136.238 1362.55 130.488 1365.42 122.941C1368.36 115.335 1369.82 106.021 1369.82 95ZM1614.99 95C1614.99 115.484 1611 132.764 1603.04 146.84C1595.07 160.855 1584.32 171.487 1570.78 178.734C1557.25 185.922 1542.15 189.516 1525.5 189.516C1508.73 189.516 1493.58 185.892 1480.04 178.645C1466.57 171.337 1455.84 160.676 1447.88 146.66C1439.97 132.585 1436.02 115.365 1436.02 95C1436.02 74.5156 1439.97 57.2656 1447.88 43.25C1455.84 29.1745 1466.57 18.543 1480.04 11.3555C1493.58 4.10807 1508.73 0.484368 1525.5 0.484368C1542.15 0.484368 1557.25 4.10807 1570.78 11.3555C1584.32 18.543 1595.07 29.1745 1603.04 43.25C1611 57.2656 1614.99 74.5156 1614.99 95ZM1563.6 95C1563.6 83.9792 1562.13 74.6953 1559.19 67.1484C1556.32 59.5417 1552.04 53.7917 1546.35 49.8984C1540.72 45.9453 1533.77 43.9687 1525.5 43.9687C1517.24 43.9687 1510.26 45.9453 1504.57 49.8984C1498.94 53.7917 1494.66 59.5417 1491.72 67.1484C1488.85 74.6953 1487.41 83.9792 1487.41 95C1487.41 106.021 1488.85 115.335 1491.72 122.941C1494.66 130.488 1498.94 136.238 1504.57 140.191C1510.26 144.085 1517.24 146.031 1525.5 146.031C1533.77 146.031 1540.72 144.085 1546.35 140.191C1552.04 136.238 1556.32 130.488 1559.19 122.941C1562.13 115.335 1563.6 106.021 1563.6 95ZM1789.71 2.99999V187H1748.03L1681.54 90.3281H1680.46V187H1630.51V2.99999H1672.92L1738.32 99.3125H1739.76V2.99999H1789.71Z" fill="url(#paint0_linear_1178_220)"/>
<defs>
<linearGradient id="paint0_linear_1178_220" x1="896" y1="69.5" x2="896" y2="159.5" gradientUnits="userSpaceOnUse">
<stop stop-color="white"/>
<stop offset="0.463542" stop-color="white" stop-opacity="0"/>
<stop offset="1" stop-color="white"/>
</linearGradient>
</defs>
</svg>