<svg xmlns="http://www.w3.org/2000/svg" width="1rem" height="1rem" viewBox="0 0 11 11" fill="none">
<path d="M3.70561 6.56527L0.113818 5.19769C-0.0314948 5.14262 -0.0396979 4.94105 0.100927 4.87426L10.247 0.018007C10.3888 -0.0499617 10.5412 0.0859757 10.4896 0.233632L7.09819 10.0059C7.05366 10.1336 6.88726 10.1664 6.79819 10.0645L3.77476 6.61332C3.75601 6.59223 3.73257 6.57465 3.70561 6.56527Z" fill="black"/>
<path d="M2.96191 6.2817L8.7416 1.57779C8.78379 1.54264 8.83887 1.60357 8.8002 1.64225L3.8502 6.54068C3.80918 6.5817 3.80684 6.64732 3.84434 6.69185C3.77273 6.65857 3.1663 6.3767 2.96191 6.2817Z" fill="#2B2B2B"/>
</svg>