
<svg xmlns="http://www.w3.org/2000/svg" xml:space="preserve" id="Layer_1" x="0" y="0"
    style="enable-background:new 0 0 1813.13 302.19" version="1.1" viewBox="0 0 1813.13 302.19">
<path d="M200.4 248.528C194.129 261.591 183.269 271.755 167.597 278.982L167.578 278.99L167.559 278.999C150.472 287.226 128.84 291.409 102.546 291.409C70.6589 291.409 46.117 284.686 28.6204 271.543L28.607 271.533L28.5934 271.523C11.217 258.832 2.5 240.727 2.5 216.855C2.5 194.093 10.9315 176.512 27.7782 163.818C45.2752 150.683 69.817 143.953 101.702 143.953C135.28 143.953 160.954 150.498 179.015 163.273C187.735 170.201 194.246 178.062 198.638 186.841H144.424C141.734 183.504 138.98 180.872 136.138 179.011C128.204 173.484 117.184 170.881 103.377 170.881C90.6063 170.881 79.9322 173.517 71.5099 178.987L71.4583 179.02L71.4084 179.056C60.3737 187.021 55.1126 200.025 55.1126 217.411C55.1126 234.747 60.3467 247.592 71.3819 255.192C79.3413 261.53 90.9965 264.488 105.92 264.488C115.646 264.488 124.114 263.199 131.212 260.539C133.13 260.102 134.891 259.359 136.514 258.314L136.522 258.308L136.531 258.303C137.444 257.705 138.425 257.069 139.475 256.389C140.027 256.031 140.597 255.662 141.187 255.279L141.399 255.141L141.579 254.964C142.417 254.139 144.387 252.822 147.788 250.982C150.63 249.446 155.218 248.528 161.858 248.528H200.4Z" fill="white" stroke="#26252F" stroke-width="5"/>
<path d="M218.598 104.33H246.604C254.133 104.33 260.434 105.988 265.637 109.186C270.787 112.375 272.922 115.986 272.922 119.99V288.661H218.598V104.33Z" fill="white" stroke="#26252F" stroke-width="5"/>
<path d="M293.17 104.33H321.176C328.681 104.33 334.964 106.07 340.16 109.43C345.34 112.801 347.495 116.517 347.495 120.545V129.607H293.17V104.33ZM293.17 147.256H321.176C328.681 147.256 334.964 148.996 340.16 152.356C345.34 155.727 347.495 159.443 347.495 163.471V288.653H293.17V147.256Z" fill="white" stroke="#26252F" stroke-width="5"/>
<path d="M547.861 248.528C541.59 261.591 530.73 271.755 515.058 278.982L515.039 278.99L515.02 278.999C497.933 287.226 476.301 291.409 450.007 291.409C418.12 291.409 393.578 284.686 376.081 271.543L376.068 271.533L376.054 271.523C358.678 258.832 349.961 240.727 349.961 216.855C349.961 194.093 358.392 176.512 375.239 163.818C392.736 150.683 417.278 143.953 449.163 143.953C482.741 143.953 508.415 150.498 526.476 163.273C535.195 170.201 541.706 178.062 546.099 186.841H491.897C489.207 183.504 486.453 180.872 483.611 179.011C475.677 173.484 464.657 170.881 450.85 170.881C438.079 170.881 427.405 173.517 418.983 178.987L418.931 179.02L418.881 179.056C407.847 187.021 402.586 200.025 402.586 217.411C402.586 234.747 407.82 247.592 418.855 255.192C426.814 261.53 438.47 264.488 453.393 264.488C463.119 264.488 471.587 263.199 478.685 260.539C480.603 260.102 482.364 259.359 483.987 258.314L483.995 258.308L484.004 258.303C484.916 257.705 485.897 257.07 486.946 256.39C487.499 256.032 488.07 255.662 488.66 255.279L488.872 255.141L489.052 254.964C489.89 254.139 491.86 252.822 495.261 250.982C498.103 249.446 502.68 248.528 509.319 248.528H547.861Z" fill="white" stroke="#26252F" stroke-width="5"/>
<path d="M617.836 198.695V203.69L621.834 200.696L693.208 147.256H755.603L681.617 198.844L679.293 200.464L681.19 202.568L758.784 288.653H694.386L653.601 240.015L653.593 240.005L653.585 239.996C649.252 234.928 645.081 231.164 641.064 228.857C637.026 226.537 632.98 225.606 629.078 226.531C625.833 227.297 623.143 228.308 621.21 229.68C619.212 231.098 617.836 233.063 617.836 235.57V255.937V288.661H563.512V104.33H591.517C599.023 104.33 605.306 106.071 610.502 109.43C615.753 112.848 617.836 116.399 617.836 119.99V144.756V198.695Z" fill="white" stroke="#26252F" stroke-width="5"/>
<path d="M971.185 291.154H912.704V205.302V197.599C912.704 188.794 908.582 182.375 900.41 178.336C892.214 174.297 883.042 172.285 872.869 172.285C862.697 172.285 853.657 174.305 845.751 178.336C837.82 182.375 833.89 188.794 833.89 197.599V291.161H774.566V205.302C774.566 180.348 784.594 163.659 804.65 155.214C824.682 146.776 846.883 142.196 871.182 141.453C884.175 141.453 896.891 142.377 909.317 144.208C921.72 146.048 933.049 149.711 943.21 155.214C951.683 150.454 961.711 147.057 973.294 145.03C984.852 143.018 996.881 141.821 1009.31 141.453C1034.16 141.453 1057.05 145.68 1077.95 154.11C1098.82 162.556 1109.31 179.612 1109.31 205.302V291.161H1079.65C1071.17 291.161 1064.26 289.416 1058.88 285.933C1053.49 282.449 1050.83 277.949 1050.83 272.446V197.599C1050.83 188.794 1046.71 182.375 1038.54 178.336C1030.34 174.297 1021.17 172.285 1011 172.285C1000.82 172.285 991.626 174.305 983.454 178.336C975.258 182.375 971.16 188.794 971.16 197.599V205.302V291.154H971.185Z" fill="#D5E0E0"/>
<path d="M1130.51 78.3477H1161.01C1168.92 78.3477 1175.71 80.1871 1181.36 83.8504C1186.99 87.5215 1189.83 91.9284 1189.83 97.0632V132.107H1130.51V78.3477ZM1130.51 144.756H1161.01C1168.92 144.756 1175.71 146.596 1181.36 150.259C1186.99 153.93 1189.83 158.337 1189.83 163.472V291.154H1130.51V144.756Z" fill="#D5E0E0"/>
<path d="M1259.53 121.954C1248.14 122.408 1238.32 116.765 1237.65 109.36C1236.94 101.978 1245.6 95.6069 1257.02 95.1529L1310.07 93.0395C1321.49 92.5855 1331.28 98.2291 1331.96 105.61C1332.67 113.015 1324 119.387 1312.59 119.841L1259.53 121.954Z" fill="#D5E0E0"/>
<path d="M1237.58 70.2541C1229.99 75.8037 1216.93 76.3282 1208.38 71.4125C1199.84 66.4969 1199.04 58.004 1206.62 52.4465L1241.84 26.6001C1249.4 21.0426 1262.46 20.526 1271.03 25.4417C1279.58 30.3573 1280.37 38.8345 1272.82 44.392L1237.58 70.2541Z" fill="#D5E0E0"/>
<path d="M1252.22 143.073C1243.67 138.149 1230.61 138.666 1223.05 144.231C1215.49 149.765 1216.28 158.25 1224.83 163.182L1264.62 186.069C1273.19 190.977 1286.26 190.46 1293.81 184.911C1301.37 179.345 1300.59 170.876 1292.03 165.937L1252.22 143.073Z" fill="#D5E0E0"/>
<path d="M1171.03 47.0376C1171.75 54.4424 1163.06 60.8139 1151.64 61.2679C1140.25 61.7219 1130.45 56.094 1129.75 48.6892L1126.52 14.2247C1125.81 6.83556 1134.5 0.471813 1145.89 0.0256459C1157.31 -0.428349 1167.11 5.19962 1167.78 12.5888L1171.03 47.0376Z" fill="#D5E0E0"/>
<path d="M1100.75 66.0191C1109.3 70.9269 1110.09 79.4119 1102.54 84.9538C1094.98 90.5113 1081.89 91.0358 1073.32 86.1123L1033.49 63.2482C1024.96 58.3247 1024.17 49.8397 1031.7 44.2821C1039.31 38.7246 1052.37 38.208 1060.92 43.1237L1100.75 66.0191Z" fill="#D5E0E0"/>
</svg>